<svg width="1100" height="600" viewBox="0 0 1100 600" fill="none" xmlns="http://www.w3.org/2000/svg" role="img" aria-labelledby="activity-title activity-desc">
  <title id="activity-title">Owen-kasule GitHub contribution activity</title>
  <desc id="activity-desc">A graphical one-year GitHub contribution calendar and activity overview for Owen-kasule.</desc>
  <style>
    .heading { font: 700 27px ui-sans-serif, system-ui, sans-serif; fill: #f0f6fc; }
    .section { font: 700 23px ui-sans-serif, system-ui, sans-serif; fill: #f0f6fc; }
    .body { font: 500 20px ui-sans-serif, system-ui, sans-serif; fill: #f0f6fc; }
    .muted { font: 500 17px ui-sans-serif, system-ui, sans-serif; fill: #a8b2c1; }
    .activity-label { font: 500 16px ui-sans-serif, system-ui, sans-serif; fill: #a8b2c1; }
  </style>
  <rect x="1" y="1" width="1098" height="598" rx="10" fill="#161b22" stroke="#8b949e" stroke-width="2" />
  <text class="heading" x="44" y="48">916 contributions in 2026</text>
  <a href="https://raw.githubusercontent.com/Owen-kasule/Owen-kasule/output/github-activity-card-2026.svg"><rect x="1012" y="24" width="70" height="28" rx="6" fill="#2459a6" /><text x="1047" y="44" text-anchor="middle" fill="#f0f6fc" font-family="ui-sans-serif, system-ui, sans-serif" font-size="15" font-weight="700">2026</text></a>
<a href="https://raw.githubusercontent.com/Owen-kasule/Owen-kasule/output/github-activity-card-2025.svg"><rect x="1012" y="60" width="70" height="28" rx="6" fill="#1f2630" /><text x="1047" y="80" text-anchor="middle" fill="#f0f6fc" font-family="ui-sans-serif, system-ui, sans-serif" font-size="15" font-weight="700">2025</text></a>
<a href="https://raw.githubusercontent.com/Owen-kasule/Owen-kasule/output/github-activity-card-2024.svg"><rect x="1012" y="96" width="70" height="28" rx="6" fill="#1f2630" /><text x="1047" y="116" text-anchor="middle" fill="#f0f6fc" font-family="ui-sans-serif, system-ui, sans-serif" font-size="15" font-weight="700">2024</text></a>
<a href="https://raw.githubusercontent.com/Owen-kasule/Owen-kasule/output/github-activity-card-2023.svg"><rect x="1012" y="132" width="70" height="28" rx="6" fill="#1f2630" /><text x="1047" y="152" text-anchor="middle" fill="#f0f6fc" font-family="ui-sans-serif, system-ui, sans-serif" font-size="15" font-weight="700">2023</text></a>
<a href="https://raw.githubusercontent.com/Owen-kasule/Owen-kasule/output/github-activity-card-2022.svg"><rect x="1012" y="168" width="70" height="28" rx="6" fill="#1f2630" /><text x="1047" y="188" text-anchor="middle" fill="#f0f6fc" font-family="ui-sans-serif, system-ui, sans-serif" font-size="15" font-weight="700">2022</text></a>
  <rect x="64" y="62" width="982" height="210" rx="8" fill="#1f2630" stroke="#8b949e" stroke-width="1.5" />
  <text class="muted" x="82" y="84">Jan</text>
<text class="muted" x="167" y="84">Feb</text>
<text class="muted" x="235" y="84">Mar</text>
<text class="muted" x="320" y="84">Apr</text>
<text class="muted" x="388" y="84">May</text>
<text class="muted" x="473" y="84">Jun</text>
<text class="muted" x="541" y="84">Jul</text>
<text class="muted" x="609" y="84">Aug</text>
<text class="muted" x="694" y="84">Sep</text>
<text class="muted" x="762" y="84">Oct</text>
<text class="muted" x="830" y="84">Nov</text>
<text class="muted" x="915" y="84">Dec</text>
  <text class="muted" x="25" y="126">Mon</text>
  <text class="muted" x="25" y="194">Wed</text>
  <text class="muted" x="25" y="262">Fri</text>
  <g aria-label="One-year contribution calendar"><rect x="82" y="96" width="13" height="13" rx="3" fill="#0d1117"><title>2026-01-01: 0 contributions</title></rect>
<rect x="82" y="113" width="13" height="13" rx="3" fill="#0d1117"><title>2026-01-01: 0 contributions</title></rect>
<rect x="82" y="130" width="13" height="13" rx="3" fill="#0d1117"><title>2026-01-01: 0 contributions</title></rect>
<rect x="82" y="147" width="13" height="13" rx="3" fill="#0d1117"><title>2026-01-01: 0 contributions</title></rect>
<rect x="82" y="164" width="13" height="13" rx="3" fill="#0d1117"><title>2026-01-01: 0 contributions</title></rect>
<rect x="82" y="181" width="13" height="13" rx="3" fill="#9be9a8"><title>2026-01-02: 3 contributions</title></rect>
<rect x="82" y="198" width="13" height="13" rx="3" fill="#40c463"><title>2026-01-03: 6 contributions</title></rect>
<rect x="99" y="96" width="13" height="13" rx="3" fill="#40c463"><title>2026-01-04: 12 contributions</title></rect>
<rect x="99" y="113" width="13" height="13" rx="3" fill="#0d1117"><title>2026-01-05: 0 contributions</title></rect>
<rect x="99" y="130" width="13" height="13" rx="3" fill="#0d1117"><title>2026-01-06: 0 contributions</title></rect>
<rect x="99" y="147" width="13" height="13" rx="3" fill="#0d1117"><title>2026-01-07: 0 contributions</title></rect>
<rect x="99" y="164" width="13" height="13" rx="3" fill="#0d1117"><title>2026-01-08: 0 contributions</title></rect>
<rect x="99" y="181" width="13" height="13" rx="3" fill="#0d1117"><title>2026-01-09: 0 contributions</title></rect>
<rect x="99" y="198" width="13" height="13" rx="3" fill="#9be9a8"><title>2026-01-10: 2 contributions</title></rect>
<rect x="116" y="96" width="13" height="13" rx="3" fill="#0d1117"><title>2026-01-11: 0 contributions</title></rect>
<rect x="116" y="113" width="13" height="13" rx="3" fill="#0d1117"><title>2026-01-12: 0 contributions</title></rect>
<rect x="116" y="130" width="13" height="13" rx="3" fill="#0d1117"><title>2026-01-13: 0 contributions</title></rect>
<rect x="116" y="147" width="13" height="13" rx="3" fill="#0d1117"><title>2026-01-14: 0 contributions</title></rect>
<rect x="116" y="164" width="13" height="13" rx="3" fill="#0d1117"><title>2026-01-15: 0 contributions</title></rect>
<rect x="116" y="181" width="13" height="13" rx="3" fill="#0d1117"><title>2026-01-16: 0 contributions</title></rect>
<rect x="116" y="198" width="13" height="13" rx="3" fill="#0d1117"><title>2026-01-17: 0 contributions</title></rect>
<rect x="133" y="96" width="13" height="13" rx="3" fill="#0d1117"><title>2026-01-18: 0 contributions</title></rect>
<rect x="133" y="113" width="13" height="13" rx="3" fill="#0d1117"><title>2026-01-19: 0 contributions</title></rect>
<rect x="133" y="130" width="13" height="13" rx="3" fill="#9be9a8"><title>2026-01-20: 3 contributions</title></rect>
<rect x="133" y="147" width="13" height="13" rx="3" fill="#0d1117"><title>2026-01-21: 0 contributions</title></rect>
<rect x="133" y="164" width="13" height="13" rx="3" fill="#0d1117"><title>2026-01-22: 0 contributions</title></rect>
<rect x="133" y="181" width="13" height="13" rx="3" fill="#0d1117"><title>2026-01-23: 0 contributions</title></rect>
<rect x="133" y="198" width="13" height="13" rx="3" fill="#0d1117"><title>2026-01-24: 0 contributions</title></rect>
<rect x="150" y="96" width="13" height="13" rx="3" fill="#0d1117"><title>2026-01-25: 0 contributions</title></rect>
<rect x="150" y="113" width="13" height="13" rx="3" fill="#0d1117"><title>2026-01-26: 0 contributions</title></rect>
<rect x="150" y="130" width="13" height="13" rx="3" fill="#0d1117"><title>2026-01-27: 0 contributions</title></rect>
<rect x="150" y="147" width="13" height="13" rx="3" fill="#0d1117"><title>2026-01-28: 0 contributions</title></rect>
<rect x="150" y="164" width="13" height="13" rx="3" fill="#40c463"><title>2026-01-29: 6 contributions</title></rect>
<rect x="150" y="181" width="13" height="13" rx="3" fill="#0d1117"><title>2026-01-30: 0 contributions</title></rect>
<rect x="150" y="198" width="13" height="13" rx="3" fill="#0d1117"><title>2026-01-31: 0 contributions</title></rect>
<rect x="167" y="96" width="13" height="13" rx="3" fill="#0d1117"><title>2026-02-01: 0 contributions</title></rect>
<rect x="167" y="113" width="13" height="13" rx="3" fill="#0d1117"><title>2026-02-02: 0 contributions</title></rect>
<rect x="167" y="130" width="13" height="13" rx="3" fill="#40c463"><title>2026-02-03: 5 contributions</title></rect>
<rect x="167" y="147" width="13" height="13" rx="3" fill="#9be9a8"><title>2026-02-04: 2 contributions</title></rect>
<rect x="167" y="164" width="13" height="13" rx="3" fill="#0d1117"><title>2026-02-05: 0 contributions</title></rect>
<rect x="167" y="181" width="13" height="13" rx="3" fill="#0d1117"><title>2026-02-06: 0 contributions</title></rect>
<rect x="167" y="198" width="13" height="13" rx="3" fill="#0d1117"><title>2026-02-07: 0 contributions</title></rect>
<rect x="184" y="96" width="13" height="13" rx="3" fill="#0d1117"><title>2026-02-08: 0 contributions</title></rect>
<rect x="184" y="113" width="13" height="13" rx="3" fill="#0d1117"><title>2026-02-09: 0 contributions</title></rect>
<rect x="184" y="130" width="13" height="13" rx="3" fill="#0d1117"><title>2026-02-10: 0 contributions</title></rect>
<rect x="184" y="147" width="13" height="13" rx="3" fill="#0d1117"><title>2026-02-11: 0 contributions</title></rect>
<rect x="184" y="164" width="13" height="13" rx="3" fill="#9be9a8"><title>2026-02-12: 1 contributions</title></rect>
<rect x="184" y="181" width="13" height="13" rx="3" fill="#0d1117"><title>2026-02-13: 0 contributions</title></rect>
<rect x="184" y="198" width="13" height="13" rx="3" fill="#9be9a8"><title>2026-02-14: 1 contributions</title></rect>
<rect x="201" y="96" width="13" height="13" rx="3" fill="#0d1117"><title>2026-02-15: 0 contributions</title></rect>
<rect x="201" y="113" width="13" height="13" rx="3" fill="#0d1117"><title>2026-02-16: 0 contributions</title></rect>
<rect x="201" y="130" width="13" height="13" rx="3" fill="#0d1117"><title>2026-02-17: 0 contributions</title></rect>
<rect x="201" y="147" width="13" height="13" rx="3" fill="#0d1117"><title>2026-02-18: 0 contributions</title></rect>
<rect x="201" y="164" width="13" height="13" rx="3" fill="#0d1117"><title>2026-02-19: 0 contributions</title></rect>
<rect x="201" y="181" width="13" height="13" rx="3" fill="#0d1117"><title>2026-02-20: 0 contributions</title></rect>
<rect x="201" y="198" width="13" height="13" rx="3" fill="#216e39"><title>2026-02-21: 30 contributions</title></rect>
<rect x="218" y="96" width="13" height="13" rx="3" fill="#0d1117"><title>2026-02-22: 0 contributions</title></rect>
<rect x="218" y="113" width="13" height="13" rx="3" fill="#9be9a8"><title>2026-02-23: 1 contributions</title></rect>
<rect x="218" y="130" width="13" height="13" rx="3" fill="#30a14e"><title>2026-02-24: 15 contributions</title></rect>
<rect x="218" y="147" width="13" height="13" rx="3" fill="#40c463"><title>2026-02-25: 14 contributions</title></rect>
<rect x="218" y="164" width="13" height="13" rx="3" fill="#30a14e"><title>2026-02-26: 27 contributions</title></rect>
<rect x="218" y="181" width="13" height="13" rx="3" fill="#40c463"><title>2026-02-27: 10 contributions</title></rect>
<rect x="218" y="198" width="13" height="13" rx="3" fill="#0d1117"><title>2026-02-28: 0 contributions</title></rect>
<rect x="235" y="96" width="13" height="13" rx="3" fill="#0d1117"><title>2026-03-01: 0 contributions</title></rect>
<rect x="235" y="113" width="13" height="13" rx="3" fill="#30a14e"><title>2026-03-02: 26 contributions</title></rect>
<rect x="235" y="130" width="13" height="13" rx="3" fill="#30a14e"><title>2026-03-03: 23 contributions</title></rect>
<rect x="235" y="147" width="13" height="13" rx="3" fill="#0d1117"><title>2026-03-04: 0 contributions</title></rect>
<rect x="235" y="164" width="13" height="13" rx="3" fill="#40c463"><title>2026-03-05: 13 contributions</title></rect>
<rect x="235" y="181" width="13" height="13" rx="3" fill="#30a14e"><title>2026-03-06: 19 contributions</title></rect>
<rect x="235" y="198" width="13" height="13" rx="3" fill="#9be9a8"><title>2026-03-07: 2 contributions</title></rect>
<rect x="252" y="96" width="13" height="13" rx="3" fill="#216e39"><title>2026-03-08: 72 contributions</title></rect>
<rect x="252" y="113" width="13" height="13" rx="3" fill="#40c463"><title>2026-03-09: 6 contributions</title></rect>
<rect x="252" y="130" width="13" height="13" rx="3" fill="#0d1117"><title>2026-03-10: 0 contributions</title></rect>
<rect x="252" y="147" width="13" height="13" rx="3" fill="#0d1117"><title>2026-03-11: 0 contributions</title></rect>
<rect x="252" y="164" width="13" height="13" rx="3" fill="#216e39"><title>2026-03-12: 32 contributions</title></rect>
<rect x="252" y="181" width="13" height="13" rx="3" fill="#9be9a8"><title>2026-03-13: 1 contributions</title></rect>
<rect x="252" y="198" width="13" height="13" rx="3" fill="#0d1117"><title>2026-03-14: 0 contributions</title></rect>
<rect x="269" y="96" width="13" height="13" rx="3" fill="#0d1117"><title>2026-03-15: 0 contributions</title></rect>
<rect x="269" y="113" width="13" height="13" rx="3" fill="#9be9a8"><title>2026-03-16: 1 contributions</title></rect>
<rect x="269" y="130" width="13" height="13" rx="3" fill="#0d1117"><title>2026-03-17: 0 contributions</title></rect>
<rect x="269" y="147" width="13" height="13" rx="3" fill="#9be9a8"><title>2026-03-18: 1 contributions</title></rect>
<rect x="269" y="164" width="13" height="13" rx="3" fill="#30a14e"><title>2026-03-19: 18 contributions</title></rect>
<rect x="269" y="181" width="13" height="13" rx="3" fill="#0d1117"><title>2026-03-20: 0 contributions</title></rect>
<rect x="269" y="198" width="13" height="13" rx="3" fill="#0d1117"><title>2026-03-21: 0 contributions</title></rect>
<rect x="286" y="96" width="13" height="13" rx="3" fill="#9be9a8"><title>2026-03-22: 2 contributions</title></rect>
<rect x="286" y="113" width="13" height="13" rx="3" fill="#30a14e"><title>2026-03-23: 19 contributions</title></rect>
<rect x="286" y="130" width="13" height="13" rx="3" fill="#9be9a8"><title>2026-03-24: 2 contributions</title></rect>
<rect x="286" y="147" width="13" height="13" rx="3" fill="#30a14e"><title>2026-03-25: 16 contributions</title></rect>
<rect x="286" y="164" width="13" height="13" rx="3" fill="#0d1117"><title>2026-03-26: 0 contributions</title></rect>
<rect x="286" y="181" width="13" height="13" rx="3" fill="#0d1117"><title>2026-03-27: 0 contributions</title></rect>
<rect x="286" y="198" width="13" height="13" rx="3" fill="#40c463"><title>2026-03-28: 13 contributions</title></rect>
<rect x="303" y="96" width="13" height="13" rx="3" fill="#0d1117"><title>2026-03-29: 0 contributions</title></rect>
<rect x="303" y="113" width="13" height="13" rx="3" fill="#30a14e"><title>2026-03-30: 24 contributions</title></rect>
<rect x="303" y="130" width="13" height="13" rx="3" fill="#0d1117"><title>2026-03-31: 0 contributions</title></rect>
<rect x="303" y="147" width="13" height="13" rx="3" fill="#0d1117"><title>2026-04-01: 0 contributions</title></rect>
<rect x="303" y="164" width="13" height="13" rx="3" fill="#0d1117"><title>2026-04-02: 0 contributions</title></rect>
<rect x="303" y="181" width="13" height="13" rx="3" fill="#0d1117"><title>2026-04-03: 0 contributions</title></rect>
<rect x="303" y="198" width="13" height="13" rx="3" fill="#216e39"><title>2026-04-04: 58 contributions</title></rect>
<rect x="320" y="96" width="13" height="13" rx="3" fill="#30a14e"><title>2026-04-05: 27 contributions</title></rect>
<rect x="320" y="113" width="13" height="13" rx="3" fill="#0d1117"><title>2026-04-06: 0 contributions</title></rect>
<rect x="320" y="130" width="13" height="13" rx="3" fill="#0d1117"><title>2026-04-07: 0 contributions</title></rect>
<rect x="320" y="147" width="13" height="13" rx="3" fill="#0d1117"><title>2026-04-08: 0 contributions</title></rect>
<rect x="320" y="164" width="13" height="13" rx="3" fill="#0d1117"><title>2026-04-09: 0 contributions</title></rect>
<rect x="320" y="181" width="13" height="13" rx="3" fill="#9be9a8"><title>2026-04-10: 3 contributions</title></rect>
<rect x="320" y="198" width="13" height="13" rx="3" fill="#0d1117"><title>2026-04-11: 0 contributions</title></rect>
<rect x="337" y="96" width="13" height="13" rx="3" fill="#0d1117"><title>2026-04-12: 0 contributions</title></rect>
<rect x="337" y="113" width="13" height="13" rx="3" fill="#0d1117"><title>2026-04-13: 0 contributions</title></rect>
<rect x="337" y="130" width="13" height="13" rx="3" fill="#0d1117"><title>2026-04-14: 0 contributions</title></rect>
<rect x="337" y="147" width="13" height="13" rx="3" fill="#9be9a8"><title>2026-04-15: 4 contributions</title></rect>
<rect x="337" y="164" width="13" height="13" rx="3" fill="#40c463"><title>2026-04-16: 12 contributions</title></rect>
<rect x="337" y="181" width="13" height="13" rx="3" fill="#30a14e"><title>2026-04-17: 16 contributions</title></rect>
<rect x="337" y="198" width="13" height="13" rx="3" fill="#0d1117"><title>2026-04-18: 0 contributions</title></rect>
<rect x="354" y="96" width="13" height="13" rx="3" fill="#0d1117"><title>2026-04-19: 0 contributions</title></rect>
<rect x="354" y="113" width="13" height="13" rx="3" fill="#0d1117"><title>2026-04-20: 0 contributions</title></rect>
<rect x="354" y="130" width="13" height="13" rx="3" fill="#0d1117"><title>2026-04-21: 0 contributions</title></rect>
<rect x="354" y="147" width="13" height="13" rx="3" fill="#40c463"><title>2026-04-22: 8 contributions</title></rect>
<rect x="354" y="164" width="13" height="13" rx="3" fill="#40c463"><title>2026-04-23: 13 contributions</title></rect>
<rect x="354" y="181" width="13" height="13" rx="3" fill="#30a14e"><title>2026-04-24: 19 contributions</title></rect>
<rect x="354" y="198" width="13" height="13" rx="3" fill="#0d1117"><title>2026-04-25: 0 contributions</title></rect>
<rect x="371" y="96" width="13" height="13" rx="3" fill="#0d1117"><title>2026-04-26: 0 contributions</title></rect>
<rect x="371" y="113" width="13" height="13" rx="3" fill="#9be9a8"><title>2026-04-27: 2 contributions</title></rect>
<rect x="371" y="130" width="13" height="13" rx="3" fill="#9be9a8"><title>2026-04-28: 3 contributions</title></rect>
<rect x="371" y="147" width="13" height="13" rx="3" fill="#40c463"><title>2026-04-29: 14 contributions</title></rect>
<rect x="371" y="164" width="13" height="13" rx="3" fill="#9be9a8"><title>2026-04-30: 4 contributions</title></rect>
<rect x="371" y="181" width="13" height="13" rx="3" fill="#0d1117"><title>2026-05-01: 0 contributions</title></rect>
<rect x="371" y="198" width="13" height="13" rx="3" fill="#40c463"><title>2026-05-02: 6 contributions</title></rect>
<rect x="388" y="96" width="13" height="13" rx="3" fill="#0d1117"><title>2026-05-03: 0 contributions</title></rect>
<rect x="388" y="113" width="13" height="13" rx="3" fill="#40c463"><title>2026-05-04: 5 contributions</title></rect>
<rect x="388" y="130" width="13" height="13" rx="3" fill="#9be9a8"><title>2026-05-05: 4 contributions</title></rect>
<rect x="388" y="147" width="13" height="13" rx="3" fill="#40c463"><title>2026-05-06: 11 contributions</title></rect>
<rect x="388" y="164" width="13" height="13" rx="3" fill="#30a14e"><title>2026-05-07: 21 contributions</title></rect>
<rect x="388" y="181" width="13" height="13" rx="3" fill="#40c463"><title>2026-05-08: 5 contributions</title></rect>
<rect x="388" y="198" width="13" height="13" rx="3" fill="#30a14e"><title>2026-05-09: 17 contributions</title></rect>
<rect x="405" y="96" width="13" height="13" rx="3" fill="#0d1117"><title>2026-05-10: 0 contributions</title></rect>
<rect x="405" y="113" width="13" height="13" rx="3" fill="#40c463"><title>2026-05-11: 5 contributions</title></rect>
<rect x="405" y="130" width="13" height="13" rx="3" fill="#40c463"><title>2026-05-12: 10 contributions</title></rect>
<rect x="405" y="147" width="13" height="13" rx="3" fill="#0d1117"><title>2026-05-13: 0 contributions</title></rect>
<rect x="405" y="164" width="13" height="13" rx="3" fill="#0d1117"><title>2026-05-14: 0 contributions</title></rect>
<rect x="405" y="181" width="13" height="13" rx="3" fill="#0d1117"><title>2026-05-15: 0 contributions</title></rect>
<rect x="405" y="198" width="13" height="13" rx="3" fill="#0d1117"><title>2026-05-16: 0 contributions</title></rect>
<rect x="422" y="96" width="13" height="13" rx="3" fill="#0d1117"><title>2026-05-17: 0 contributions</title></rect>
<rect x="422" y="113" width="13" height="13" rx="3" fill="#0d1117"><title>2026-05-18: 0 contributions</title></rect>
<rect x="422" y="130" width="13" height="13" rx="3" fill="#9be9a8"><title>2026-05-19: 3 contributions</title></rect>
<rect x="422" y="147" width="13" height="13" rx="3" fill="#0d1117"><title>2026-05-20: 0 contributions</title></rect>
<rect x="422" y="164" width="13" height="13" rx="3" fill="#0d1117"><title>2026-05-21: 0 contributions</title></rect>
<rect x="422" y="181" width="13" height="13" rx="3" fill="#0d1117"><title>2026-05-22: 0 contributions</title></rect>
<rect x="422" y="198" width="13" height="13" rx="3" fill="#0d1117"><title>2026-05-23: 0 contributions</title></rect>
<rect x="439" y="96" width="13" height="13" rx="3" fill="#0d1117"><title>2026-05-24: 0 contributions</title></rect>
<rect x="439" y="113" width="13" height="13" rx="3" fill="#40c463"><title>2026-05-25: 10 contributions</title></rect>
<rect x="439" y="130" width="13" height="13" rx="3" fill="#0d1117"><title>2026-05-26: 0 contributions</title></rect>
<rect x="439" y="147" width="13" height="13" rx="3" fill="#9be9a8"><title>2026-05-27: 1 contributions</title></rect>
<rect x="439" y="164" width="13" height="13" rx="3" fill="#0d1117"><title>2026-05-28: 0 contributions</title></rect>
<rect x="439" y="181" width="13" height="13" rx="3" fill="#9be9a8"><title>2026-05-29: 1 contributions</title></rect>
<rect x="439" y="198" width="13" height="13" rx="3" fill="#9be9a8"><title>2026-05-30: 3 contributions</title></rect>
<rect x="456" y="96" width="13" height="13" rx="3" fill="#0d1117"><title>2026-05-31: 0 contributions</title></rect>
<rect x="456" y="113" width="13" height="13" rx="3" fill="#0d1117"><title>2026-06-01: 0 contributions</title></rect>
<rect x="456" y="130" width="13" height="13" rx="3" fill="#9be9a8"><title>2026-06-02: 1 contributions</title></rect>
<rect x="456" y="147" width="13" height="13" rx="3" fill="#0d1117"><title>2026-06-03: 0 contributions</title></rect>
<rect x="456" y="164" width="13" height="13" rx="3" fill="#0d1117"><title>2026-06-04: 0 contributions</title></rect>
<rect x="456" y="181" width="13" height="13" rx="3" fill="#0d1117"><title>2026-06-05: 0 contributions</title></rect>
<rect x="456" y="198" width="13" height="13" rx="3" fill="#0d1117"><title>2026-06-06: 0 contributions</title></rect>
<rect x="473" y="96" width="13" height="13" rx="3" fill="#0d1117"><title>2026-06-07: 0 contributions</title></rect>
<rect x="473" y="113" width="13" height="13" rx="3" fill="#0d1117"><title>2026-06-08: 0 contributions</title></rect>
<rect x="473" y="130" width="13" height="13" rx="3" fill="#0d1117"><title>2026-06-09: 0 contributions</title></rect>
<rect x="473" y="147" width="13" height="13" rx="3" fill="#0d1117"><title>2026-06-10: 0 contributions</title></rect>
<rect x="473" y="164" width="13" height="13" rx="3" fill="#0d1117"><title>2026-06-11: 0 contributions</title></rect>
<rect x="473" y="181" width="13" height="13" rx="3" fill="#0d1117"><title>2026-06-12: 0 contributions</title></rect>
<rect x="473" y="198" width="13" height="13" rx="3" fill="#0d1117"><title>2026-06-13: 0 contributions</title></rect>
<rect x="490" y="96" width="13" height="13" rx="3" fill="#0d1117"><title>2026-06-14: 0 contributions</title></rect>
<rect x="490" y="113" width="13" height="13" rx="3" fill="#0d1117"><title>2026-06-15: 0 contributions</title></rect>
<rect x="490" y="130" width="13" height="13" rx="3" fill="#0d1117"><title>2026-06-16: 0 contributions</title></rect>
<rect x="490" y="147" width="13" height="13" rx="3" fill="#0d1117"><title>2026-06-17: 0 contributions</title></rect>
<rect x="490" y="164" width="13" height="13" rx="3" fill="#0d1117"><title>2026-06-18: 0 contributions</title></rect>
<rect x="490" y="181" width="13" height="13" rx="3" fill="#0d1117"><title>2026-06-19: 0 contributions</title></rect>
<rect x="490" y="198" width="13" height="13" rx="3" fill="#0d1117"><title>2026-06-20: 0 contributions</title></rect>
<rect x="507" y="96" width="13" height="13" rx="3" fill="#0d1117"><title>2026-06-21: 0 contributions</title></rect>
<rect x="507" y="113" width="13" height="13" rx="3" fill="#30a14e"><title>2026-06-22: 25 contributions</title></rect>
<rect x="507" y="130" width="13" height="13" rx="3" fill="#9be9a8"><title>2026-06-23: 2 contributions</title></rect>
<rect x="507" y="147" width="13" height="13" rx="3" fill="#9be9a8"><title>2026-06-24: 1 contributions</title></rect>
<rect x="507" y="164" width="13" height="13" rx="3" fill="#0d1117"><title>2026-06-25: 0 contributions</title></rect>
<rect x="507" y="181" width="13" height="13" rx="3" fill="#0d1117"><title>2026-06-26: 0 contributions</title></rect>
<rect x="507" y="198" width="13" height="13" rx="3" fill="#0d1117"><title>2026-06-27: 0 contributions</title></rect>
<rect x="524" y="96" width="13" height="13" rx="3" fill="#9be9a8"><title>2026-06-28: 2 contributions</title></rect>
<rect x="524" y="113" width="13" height="13" rx="3" fill="#0d1117"><title>2026-06-29: 0 contributions</title></rect>
<rect x="524" y="130" width="13" height="13" rx="3" fill="#0d1117"><title>2026-06-30: 0 contributions</title></rect>
<rect x="524" y="147" width="13" height="13" rx="3" fill="#0d1117"><title>2026-07-01: 0 contributions</title></rect>
<rect x="524" y="164" width="13" height="13" rx="3" fill="#0d1117"><title>2026-07-02: 0 contributions</title></rect>
<rect x="524" y="181" width="13" height="13" rx="3" fill="#9be9a8"><title>2026-07-03: 2 contributions</title></rect>
<rect x="524" y="198" width="13" height="13" rx="3" fill="#0d1117"><title>2026-07-04: 0 contributions</title></rect>
<rect x="541" y="96" width="13" height="13" rx="3" fill="#0d1117"><title>2026-07-05: 0 contributions</title></rect>
<rect x="541" y="113" width="13" height="13" rx="3" fill="#0d1117"><title>2026-07-06: 0 contributions</title></rect>
<rect x="541" y="130" width="13" height="13" rx="3" fill="#0d1117"><title>2026-07-07: 0 contributions</title></rect>
<rect x="541" y="147" width="13" height="13" rx="3" fill="#0d1117"><title>2026-07-08: 0 contributions</title></rect>
<rect x="541" y="164" width="13" height="13" rx="3" fill="#0d1117"><title>2026-07-09: 0 contributions</title></rect>
<rect x="541" y="181" width="13" height="13" rx="3" fill="#0d1117"><title>2026-07-10: 0 contributions</title></rect>
<rect x="541" y="198" width="13" height="13" rx="3" fill="#0d1117"><title>2026-07-11: 0 contributions</title></rect>
<rect x="558" y="96" width="13" height="13" rx="3" fill="#0d1117"><title>2026-07-12: 0 contributions</title></rect>
<rect x="558" y="113" width="13" height="13" rx="3" fill="#0d1117"><title>2026-07-13: 0 contributions</title></rect>
<rect x="558" y="130" width="13" height="13" rx="3" fill="#0d1117"><title>2026-07-14: 0 contributions</title></rect>
<rect x="558" y="147" width="13" height="13" rx="3" fill="#0d1117"><title>2026-07-15: 0 contributions</title></rect>
<rect x="558" y="164" width="13" height="13" rx="3" fill="#0d1117"><title>2026-07-16: 0 contributions</title></rect>
<rect x="558" y="181" width="13" height="13" rx="3" fill="#9be9a8"><title>2026-07-17: 1 contributions</title></rect>
<rect x="558" y="198" width="13" height="13" rx="3" fill="#0d1117"><title>2026-07-18: 0 contributions</title></rect>
<rect x="575" y="96" width="13" height="13" rx="3" fill="#0d1117"><title>2026-07-19: 0 contributions</title></rect>
<rect x="575" y="113" width="13" height="13" rx="3" fill="#0d1117"><title>2026-07-20: 0 contributions</title></rect>
<rect x="575" y="130" width="13" height="13" rx="3" fill="#0d1117"><title>2026-07-21: 0 contributions</title></rect>
<rect x="575" y="147" width="13" height="13" rx="3" fill="#0d1117"><title>2026-07-22: 0 contributions</title></rect>
<rect x="575" y="164" width="13" height="13" rx="3" fill="#0d1117"><title>2026-07-23: 0 contributions</title></rect>
<rect x="575" y="181" width="13" height="13" rx="3" fill="#40c463"><title>2026-07-24: 6 contributions</title></rect>
<rect x="575" y="198" width="13" height="13" rx="3" fill="#0d1117"><title>2026-07-25: 0 contributions</title></rect>
<rect x="592" y="96" width="13" height="13" rx="3" fill="#0d1117"><title>2026-07-26: 0 contributions</title></rect>
<rect x="592" y="113" width="13" height="13" rx="3" fill="#0d1117"><title>2026-07-27: 0 contributions</title></rect>
<rect x="592" y="130" width="13" height="13" rx="3" fill="#0d1117"><title>2026-07-28: 0 contributions</title></rect>
<rect x="592" y="147" width="13" height="13" rx="3" fill="#9be9a8"><title>2026-07-29: 2 contributions</title></rect>
<rect x="592" y="164" width="13" height="13" rx="3" fill="#0d1117"><title>2026-07-30: 0 contributions</title></rect>
<rect x="592" y="181" width="13" height="13" rx="3" fill="#9be9a8"><title>2026-07-31: 3 contributions</title></rect>
<rect x="592" y="198" width="13" height="13" rx="3" fill="#30a14e"><title>2026-08-01: 21 contributions</title></rect>
<rect x="609" y="96" width="13" height="13" rx="3" fill="#9be9a8"><title>2026-08-02: 4 contributions</title></rect>
<rect x="609" y="113" width="13" height="13" rx="3" fill="#9be9a8"><title>2026-08-03: 1 contributions</title></rect>
<rect x="609" y="130" width="13" height="13" rx="3" fill="#0d1117"><title>2026-08-04: 0 contributions</title></rect>
<rect x="609" y="147" width="13" height="13" rx="3" fill="#40c463"><title>2026-08-05: 13 contributions</title></rect>
<rect x="609" y="164" width="13" height="13" rx="3" fill="#0d1117"><title>2026-08-06: 0 contributions</title></rect>
<rect x="609" y="181" width="13" height="13" rx="3" fill="#40c463"><title>2026-08-07: 13 contributions</title></rect>
<rect x="609" y="198" width="13" height="13" rx="3" fill="#9be9a8"><title>2026-08-08: 2 contributions</title></rect>
<rect x="626" y="96" width="13" height="13" rx="3" fill="#0d1117"><title>2026-08-09: 0 contributions</title></rect>
<rect x="626" y="113" width="13" height="13" rx="3" fill="#9be9a8"><title>2026-08-10: 4 contributions</title></rect>
<rect x="626" y="130" width="13" height="13" rx="3" fill="#40c463"><title>2026-08-11: 10 contributions</title></rect>
<rect x="626" y="147" width="13" height="13" rx="3" fill="#0d1117"><title>2026-08-12: 0 contributions</title></rect>
<rect x="626" y="164" width="13" height="13" rx="3" fill="#0d1117"><title>2026-08-13: 0 contributions</title></rect>
<rect x="626" y="181" width="13" height="13" rx="3" fill="#0d1117"><title>2026-08-14: 0 contributions</title></rect>
<rect x="626" y="198" width="13" height="13" rx="3" fill="#0d1117"><title>2026-08-15: 0 contributions</title></rect>
<rect x="643" y="96" width="13" height="13" rx="3" fill="#0d1117"><title>2026-08-16: 0 contributions</title></rect>
<rect x="643" y="113" width="13" height="13" rx="3" fill="#0d1117"><title>2026-08-17: 0 contributions</title></rect>
<rect x="643" y="130" width="13" height="13" rx="3" fill="#0d1117"><title>2026-08-18: 0 contributions</title></rect>
<rect x="643" y="147" width="13" height="13" rx="3" fill="#0d1117"><title>2026-08-19: 0 contributions</title></rect>
<rect x="643" y="164" width="13" height="13" rx="3" fill="#0d1117"><title>2026-08-20: 0 contributions</title></rect>
<rect x="643" y="181" width="13" height="13" rx="3" fill="#40c463"><title>2026-08-21: 7 contributions</title></rect>
<rect x="643" y="198" width="13" height="13" rx="3" fill="#0d1117"><title>2026-08-22: 0 contributions</title></rect>
<rect x="660" y="96" width="13" height="13" rx="3" fill="#40c463"><title>2026-08-23: 6 contributions</title></rect>
<rect x="660" y="113" width="13" height="13" rx="3" fill="#30a14e"><title>2026-08-24: 21 contributions</title></rect>
<rect x="660" y="130" width="13" height="13" rx="3" fill="#9be9a8"><title>2026-08-25: 2 contributions</title></rect>
<rect x="660" y="147" width="13" height="13" rx="3" fill="#9be9a8"><title>2026-08-26: 1 contributions</title></rect>
<rect x="660" y="164" width="13" height="13" rx="3" fill="#30a14e"><title>2026-08-27: 18 contributions</title></rect>
<rect x="660" y="181" width="13" height="13" rx="3" fill="#30a14e"><title>2026-08-28: 17 contributions</title></rect>
<rect x="660" y="198" width="13" height="13" rx="3" fill="#30a14e"><title>2026-08-29: 18 contributions</title></rect>
<rect x="677" y="96" width="13" height="13" rx="3" fill="#0d1117"><title>2026-08-30: 0 contributions</title></rect>
<rect x="677" y="113" width="13" height="13" rx="3" fill="#0d1117"><title>2026-08-31: 0 contributions</title></rect>
<rect x="677" y="130" width="13" height="13" rx="3" fill="#0d1117"><title>2026-09-01: 0 contributions</title></rect>
<rect x="677" y="147" width="13" height="13" rx="3" fill="#0d1117"><title>2026-09-02: 0 contributions</title></rect>
<rect x="677" y="164" width="13" height="13" rx="3" fill="#0d1117"><title>2026-09-03: 0 contributions</title></rect>
<rect x="677" y="181" width="13" height="13" rx="3" fill="#0d1117"><title>2026-09-04: 0 contributions</title></rect>
<rect x="677" y="198" width="13" height="13" rx="3" fill="#0d1117"><title>2026-09-05: 0 contributions</title></rect>
<rect x="694" y="96" width="13" height="13" rx="3" fill="#0d1117"><title>2026-09-06: 0 contributions</title></rect>
<rect x="694" y="113" width="13" height="13" rx="3" fill="#0d1117"><title>2026-09-07: 0 contributions</title></rect>
<rect x="694" y="130" width="13" height="13" rx="3" fill="#0d1117"><title>2026-09-08: 0 contributions</title></rect>
<rect x="694" y="147" width="13" height="13" rx="3" fill="#0d1117"><title>2026-09-09: 0 contributions</title></rect>
<rect x="694" y="164" width="13" height="13" rx="3" fill="#0d1117"><title>2026-09-10: 0 contributions</title></rect>
<rect x="694" y="181" width="13" height="13" rx="3" fill="#0d1117"><title>2026-09-11: 0 contributions</title></rect>
<rect x="694" y="198" width="13" height="13" rx="3" fill="#0d1117"><title>2026-09-12: 0 contributions</title></rect>
<rect x="711" y="96" width="13" height="13" rx="3" fill="#0d1117"><title>2026-09-13: 0 contributions</title></rect>
<rect x="711" y="113" width="13" height="13" rx="3" fill="#0d1117"><title>2026-09-14: 0 contributions</title></rect>
<rect x="711" y="130" width="13" height="13" rx="3" fill="#0d1117"><title>2026-09-15: 0 contributions</title></rect>
<rect x="711" y="147" width="13" height="13" rx="3" fill="#0d1117"><title>2026-09-16: 0 contributions</title></rect>
<rect x="711" y="164" width="13" height="13" rx="3" fill="#0d1117"><title>2026-09-17: 0 contributions</title></rect>
<rect x="711" y="181" width="13" height="13" rx="3" fill="#0d1117"><title>2026-09-18: 0 contributions</title></rect>
<rect x="711" y="198" width="13" height="13" rx="3" fill="#0d1117"><title>2026-09-19: 0 contributions</title></rect>
<rect x="728" y="96" width="13" height="13" rx="3" fill="#0d1117"><title>2026-09-20: 0 contributions</title></rect>
<rect x="728" y="113" width="13" height="13" rx="3" fill="#0d1117"><title>2026-09-21: 0 contributions</title></rect>
<rect x="728" y="130" width="13" height="13" rx="3" fill="#0d1117"><title>2026-09-22: 0 contributions</title></rect>
<rect x="728" y="147" width="13" height="13" rx="3" fill="#0d1117"><title>2026-09-23: 0 contributions</title></rect>
<rect x="728" y="164" width="13" height="13" rx="3" fill="#0d1117"><title>2026-09-24: 0 contributions</title></rect>
<rect x="728" y="181" width="13" height="13" rx="3" fill="#0d1117"><title>2026-09-25: 0 contributions</title></rect>
<rect x="728" y="198" width="13" height="13" rx="3" fill="#0d1117"><title>2026-09-26: 0 contributions</title></rect>
<rect x="745" y="96" width="13" height="13" rx="3" fill="#0d1117"><title>2026-09-27: 0 contributions</title></rect>
<rect x="745" y="113" width="13" height="13" rx="3" fill="#0d1117"><title>2026-09-28: 0 contributions</title></rect>
<rect x="745" y="130" width="13" height="13" rx="3" fill="#0d1117"><title>2026-09-29: 0 contributions</title></rect>
<rect x="745" y="147" width="13" height="13" rx="3" fill="#0d1117"><title>2026-09-30: 0 contributions</title></rect>
<rect x="745" y="164" width="13" height="13" rx="3" fill="#0d1117"><title>2026-10-01: 0 contributions</title></rect>
<rect x="745" y="181" width="13" height="13" rx="3" fill="#0d1117"><title>2026-10-02: 0 contributions</title></rect>
<rect x="745" y="198" width="13" height="13" rx="3" fill="#0d1117"><title>2026-10-03: 0 contributions</title></rect>
<rect x="762" y="96" width="13" height="13" rx="3" fill="#0d1117"><title>2026-10-04: 0 contributions</title></rect>
<rect x="762" y="113" width="13" height="13" rx="3" fill="#0d1117"><title>2026-10-05: 0 contributions</title></rect>
<rect x="762" y="130" width="13" height="13" rx="3" fill="#0d1117"><title>2026-10-06: 0 contributions</title></rect>
<rect x="762" y="147" width="13" height="13" rx="3" fill="#0d1117"><title>2026-10-07: 0 contributions</title></rect>
<rect x="762" y="164" width="13" height="13" rx="3" fill="#0d1117"><title>2026-10-08: 0 contributions</title></rect>
<rect x="762" y="181" width="13" height="13" rx="3" fill="#0d1117"><title>2026-10-09: 0 contributions</title></rect>
<rect x="762" y="198" width="13" height="13" rx="3" fill="#0d1117"><title>2026-10-10: 0 contributions</title></rect>
<rect x="779" y="96" width="13" height="13" rx="3" fill="#0d1117"><title>2026-10-11: 0 contributions</title></rect>
<rect x="779" y="113" width="13" height="13" rx="3" fill="#0d1117"><title>2026-10-12: 0 contributions</title></rect>
<rect x="779" y="130" width="13" height="13" rx="3" fill="#0d1117"><title>2026-10-13: 0 contributions</title></rect>
<rect x="779" y="147" width="13" height="13" rx="3" fill="#0d1117"><title>2026-10-14: 0 contributions</title></rect>
<rect x="779" y="164" width="13" height="13" rx="3" fill="#0d1117"><title>2026-10-15: 0 contributions</title></rect>
<rect x="779" y="181" width="13" height="13" rx="3" fill="#0d1117"><title>2026-10-16: 0 contributions</title></rect>
<rect x="779" y="198" width="13" height="13" rx="3" fill="#0d1117"><title>2026-10-17: 0 contributions</title></rect>
<rect x="796" y="96" width="13" height="13" rx="3" fill="#0d1117"><title>2026-10-18: 0 contributions</title></rect>
<rect x="796" y="113" width="13" height="13" rx="3" fill="#0d1117"><title>2026-10-19: 0 contributions</title></rect>
<rect x="796" y="130" width="13" height="13" rx="3" fill="#0d1117"><title>2026-10-20: 0 contributions</title></rect>
<rect x="796" y="147" width="13" height="13" rx="3" fill="#0d1117"><title>2026-10-21: 0 contributions</title></rect>
<rect x="796" y="164" width="13" height="13" rx="3" fill="#0d1117"><title>2026-10-22: 0 contributions</title></rect>
<rect x="796" y="181" width="13" height="13" rx="3" fill="#0d1117"><title>2026-10-23: 0 contributions</title></rect>
<rect x="796" y="198" width="13" height="13" rx="3" fill="#0d1117"><title>2026-10-24: 0 contributions</title></rect>
<rect x="813" y="96" width="13" height="13" rx="3" fill="#0d1117"><title>2026-10-25: 0 contributions</title></rect>
<rect x="813" y="113" width="13" height="13" rx="3" fill="#0d1117"><title>2026-10-26: 0 contributions</title></rect>
<rect x="813" y="130" width="13" height="13" rx="3" fill="#0d1117"><title>2026-10-27: 0 contributions</title></rect>
<rect x="813" y="147" width="13" height="13" rx="3" fill="#0d1117"><title>2026-10-28: 0 contributions</title></rect>
<rect x="813" y="164" width="13" height="13" rx="3" fill="#0d1117"><title>2026-10-29: 0 contributions</title></rect>
<rect x="813" y="181" width="13" height="13" rx="3" fill="#0d1117"><title>2026-10-30: 0 contributions</title></rect>
<rect x="813" y="198" width="13" height="13" rx="3" fill="#0d1117"><title>2026-10-31: 0 contributions</title></rect>
<rect x="830" y="96" width="13" height="13" rx="3" fill="#0d1117"><title>2026-11-01: 0 contributions</title></rect>
<rect x="830" y="113" width="13" height="13" rx="3" fill="#0d1117"><title>2026-11-02: 0 contributions</title></rect>
<rect x="830" y="130" width="13" height="13" rx="3" fill="#0d1117"><title>2026-11-03: 0 contributions</title></rect>
<rect x="830" y="147" width="13" height="13" rx="3" fill="#0d1117"><title>2026-11-04: 0 contributions</title></rect>
<rect x="830" y="164" width="13" height="13" rx="3" fill="#0d1117"><title>2026-11-05: 0 contributions</title></rect>
<rect x="830" y="181" width="13" height="13" rx="3" fill="#0d1117"><title>2026-11-06: 0 contributions</title></rect>
<rect x="830" y="198" width="13" height="13" rx="3" fill="#0d1117"><title>2026-11-07: 0 contributions</title></rect>
<rect x="847" y="96" width="13" height="13" rx="3" fill="#0d1117"><title>2026-11-08: 0 contributions</title></rect>
<rect x="847" y="113" width="13" height="13" rx="3" fill="#0d1117"><title>2026-11-09: 0 contributions</title></rect>
<rect x="847" y="130" width="13" height="13" rx="3" fill="#0d1117"><title>2026-11-10: 0 contributions</title></rect>
<rect x="847" y="147" width="13" height="13" rx="3" fill="#0d1117"><title>2026-11-11: 0 contributions</title></rect>
<rect x="847" y="164" width="13" height="13" rx="3" fill="#0d1117"><title>2026-11-12: 0 contributions</title></rect>
<rect x="847" y="181" width="13" height="13" rx="3" fill="#0d1117"><title>2026-11-13: 0 contributions</title></rect>
<rect x="847" y="198" width="13" height="13" rx="3" fill="#0d1117"><title>2026-11-14: 0 contributions</title></rect>
<rect x="864" y="96" width="13" height="13" rx="3" fill="#0d1117"><title>2026-11-15: 0 contributions</title></rect>
<rect x="864" y="113" width="13" height="13" rx="3" fill="#0d1117"><title>2026-11-16: 0 contributions</title></rect>
<rect x="864" y="130" width="13" height="13" rx="3" fill="#0d1117"><title>2026-11-17: 0 contributions</title></rect>
<rect x="864" y="147" width="13" height="13" rx="3" fill="#0d1117"><title>2026-11-18: 0 contributions</title></rect>
<rect x="864" y="164" width="13" height="13" rx="3" fill="#0d1117"><title>2026-11-19: 0 contributions</title></rect>
<rect x="864" y="181" width="13" height="13" rx="3" fill="#0d1117"><title>2026-11-20: 0 contributions</title></rect>
<rect x="864" y="198" width="13" height="13" rx="3" fill="#0d1117"><title>2026-11-21: 0 contributions</title></rect>
<rect x="881" y="96" width="13" height="13" rx="3" fill="#0d1117"><title>2026-11-22: 0 contributions</title></rect>
<rect x="881" y="113" width="13" height="13" rx="3" fill="#0d1117"><title>2026-11-23: 0 contributions</title></rect>
<rect x="881" y="130" width="13" height="13" rx="3" fill="#0d1117"><title>2026-11-24: 0 contributions</title></rect>
<rect x="881" y="147" width="13" height="13" rx="3" fill="#0d1117"><title>2026-11-25: 0 contributions</title></rect>
<rect x="881" y="164" width="13" height="13" rx="3" fill="#0d1117"><title>2026-11-26: 0 contributions</title></rect>
<rect x="881" y="181" width="13" height="13" rx="3" fill="#0d1117"><title>2026-11-27: 0 contributions</title></rect>
<rect x="881" y="198" width="13" height="13" rx="3" fill="#0d1117"><title>2026-11-28: 0 contributions</title></rect>
<rect x="898" y="96" width="13" height="13" rx="3" fill="#0d1117"><title>2026-11-29: 0 contributions</title></rect>
<rect x="898" y="113" width="13" height="13" rx="3" fill="#0d1117"><title>2026-11-30: 0 contributions</title></rect>
<rect x="898" y="130" width="13" height="13" rx="3" fill="#0d1117"><title>2026-12-01: 0 contributions</title></rect>
<rect x="898" y="147" width="13" height="13" rx="3" fill="#0d1117"><title>2026-12-02: 0 contributions</title></rect>
<rect x="898" y="164" width="13" height="13" rx="3" fill="#0d1117"><title>2026-12-03: 0 contributions</title></rect>
<rect x="898" y="181" width="13" height="13" rx="3" fill="#0d1117"><title>2026-12-04: 0 contributions</title></rect>
<rect x="898" y="198" width="13" height="13" rx="3" fill="#0d1117"><title>2026-12-05: 0 contributions</title></rect>
<rect x="915" y="96" width="13" height="13" rx="3" fill="#0d1117"><title>2026-12-06: 0 contributions</title></rect>
<rect x="915" y="113" width="13" height="13" rx="3" fill="#0d1117"><title>2026-12-07: 0 contributions</title></rect>
<rect x="915" y="130" width="13" height="13" rx="3" fill="#0d1117"><title>2026-12-08: 0 contributions</title></rect>
<rect x="915" y="147" width="13" height="13" rx="3" fill="#0d1117"><title>2026-12-09: 0 contributions</title></rect>
<rect x="915" y="164" width="13" height="13" rx="3" fill="#0d1117"><title>2026-12-10: 0 contributions</title></rect>
<rect x="915" y="181" width="13" height="13" rx="3" fill="#0d1117"><title>2026-12-11: 0 contributions</title></rect>
<rect x="915" y="198" width="13" height="13" rx="3" fill="#0d1117"><title>2026-12-12: 0 contributions</title></rect>
<rect x="932" y="96" width="13" height="13" rx="3" fill="#0d1117"><title>2026-12-13: 0 contributions</title></rect>
<rect x="932" y="113" width="13" height="13" rx="3" fill="#0d1117"><title>2026-12-14: 0 contributions</title></rect>
<rect x="932" y="130" width="13" height="13" rx="3" fill="#0d1117"><title>2026-12-15: 0 contributions</title></rect>
<rect x="932" y="147" width="13" height="13" rx="3" fill="#0d1117"><title>2026-12-16: 0 contributions</title></rect>
<rect x="932" y="164" width="13" height="13" rx="3" fill="#0d1117"><title>2026-12-17: 0 contributions</title></rect>
<rect x="932" y="181" width="13" height="13" rx="3" fill="#0d1117"><title>2026-12-18: 0 contributions</title></rect>
<rect x="932" y="198" width="13" height="13" rx="3" fill="#0d1117"><title>2026-12-19: 0 contributions</title></rect>
<rect x="949" y="96" width="13" height="13" rx="3" fill="#0d1117"><title>2026-12-20: 0 contributions</title></rect>
<rect x="949" y="113" width="13" height="13" rx="3" fill="#0d1117"><title>2026-12-21: 0 contributions</title></rect>
<rect x="949" y="130" width="13" height="13" rx="3" fill="#0d1117"><title>2026-12-22: 0 contributions</title></rect>
<rect x="949" y="147" width="13" height="13" rx="3" fill="#0d1117"><title>2026-12-23: 0 contributions</title></rect>
<rect x="949" y="164" width="13" height="13" rx="3" fill="#0d1117"><title>2026-12-24: 0 contributions</title></rect>
<rect x="949" y="181" width="13" height="13" rx="3" fill="#0d1117"><title>2026-12-25: 0 contributions</title></rect>
<rect x="949" y="198" width="13" height="13" rx="3" fill="#0d1117"><title>2026-12-26: 0 contributions</title></rect>
<rect x="966" y="96" width="13" height="13" rx="3" fill="#0d1117"><title>2026-12-27: 0 contributions</title></rect>
<rect x="966" y="113" width="13" height="13" rx="3" fill="#0d1117"><title>2026-12-28: 0 contributions</title></rect>
<rect x="966" y="130" width="13" height="13" rx="3" fill="#0d1117"><title>2026-12-29: 0 contributions</title></rect>
<rect x="966" y="147" width="13" height="13" rx="3" fill="#0d1117"><title>2026-12-30: 0 contributions</title></rect>
<rect x="966" y="164" width="13" height="13" rx="3" fill="#0d1117"><title>2026-12-31: 0 contributions</title></rect>
<rect x="966" y="181" width="13" height="13" rx="3" fill="#0d1117"><title>2026-01-01: 0 contributions</title></rect>
<rect x="966" y="198" width="13" height="13" rx="3" fill="#0d1117"><title>2026-01-01: 0 contributions</title></rect></g>
  <text class="muted" x="82" y="294">Less</text>
  <rect x="137" y="281" width="16" height="16" rx="3" fill="#0d1117" />
<rect x="159" y="281" width="16" height="16" rx="3" fill="#216e39" />
<rect x="181" y="281" width="16" height="16" rx="3" fill="#30a14e" />
<rect x="203" y="281" width="16" height="16" rx="3" fill="#40c463" />
<rect x="225" y="281" width="16" height="16" rx="3" fill="#9be9a8" />
  <text class="muted" x="257" y="294">More</text>
  <line x1="20" y1="276" x2="1080" y2="276" stroke="#8b949e" stroke-width="1.5" />
  <text class="section" x="44" y="322">Activity overview</text>
  <text class="body" x="44" y="370">Software engineering contributions</text>
  <text class="muted" x="44" y="402">Full-stack development, backend services, APIs,</text>
  <text class="muted" x="44" y="430">databases, cloud deployment, and technical support.</text>
  <line x1="610" y1="298" x2="610" y2="552" stroke="#8b949e" stroke-width="1.5" />
  <circle cx="915" cy="414" r="8" fill="#9be9a8" />
  <line x1="915" y1="414" x2="915" y2="392" stroke="#3fb950" stroke-width="3" opacity="0.85" /><text class="activity-label" x="915" y="370" text-anchor="middle">Code commits</text>
<line x1="915" y1="414" x2="820" y2="495" stroke="#3fb950" stroke-width="3" opacity="0.85" /><text class="activity-label" x="820" y="522" text-anchor="middle">Pull requests</text>
<line x1="915" y1="414" x2="1025" y2="432" stroke="#3fb950" stroke-width="3" opacity="0.85" /><text class="activity-label" x="1040" y="438" text-anchor="start">Issues</text>
<line x1="915" y1="414" x2="915" y2="300" stroke="#3fb950" stroke-width="3" opacity="0.85" /><text class="activity-label" x="915" y="284" text-anchor="middle">Code reviews</text>
  <circle cx="915" cy="414" r="12" fill="#161b22" stroke="#9be9a8" stroke-width="3" />
</svg>
