<svg xmlns="http://www.w3.org/2000/svg" width="900" height="320" viewBox="0 0 900 320" role="img" aria-label="GitHub Readme Stats Dashboard">
  <style>
    .title{font:700 28px ui-sans-serif,system-ui,-apple-system,"Segoe UI",sans-serif;fill:#60A5FA}
    .small{font:500 13px ui-sans-serif,system-ui,-apple-system,"Segoe UI",sans-serif;fill:#A9B4C5}
    .num{font:800 30px ui-sans-serif,system-ui,-apple-system,"Segoe UI",sans-serif;fill:#F8FAFC}
  </style>
  <rect x="1" y="1" width="898" height="318" rx="14" fill="#10162A" stroke="#1D4ED8" stroke-width="2"/>
  <text class="title" x="28" y="46">GitHub Readme Stats Dashboard</text>
  <rect x="28" y="78" width="258" height="88" rx="12" fill="#06070C" stroke="#2A3550"/>
  <text class="num" x="46" y="118">2,017</text><text class="small" x="46" y="146">Total Contributions</text>
  <rect x="314" y="78" width="258" height="88" rx="12" fill="#06070C" stroke="#2A3550"/>
  <text class="num" x="332" y="118">27</text><text class="small" x="332" y="146">Authored Pull Requests</text>
  <rect x="600" y="78" width="258" height="88" rx="12" fill="#06070C" stroke="#2A3550"/>
  <text class="num" x="618" y="118">5</text><text class="small" x="618" y="146">Featured Repo Stars</text>
  <rect x="28" y="190" width="258" height="88" rx="12" fill="#06070C" stroke="#2A3550"/>
  <text class="num" x="46" y="230">1</text><text class="small" x="46" y="258">Featured Repo Forks</text>
  <rect x="314" y="190" width="258" height="88" rx="12" fill="#06070C" stroke="#2A3550"/>
  <text class="num" x="332" y="230">7 days</text><text class="small" x="332" y="258">Current Streak</text>
  <rect x="600" y="190" width="258" height="88" rx="12" fill="#06070C" stroke="#2A3550"/>
  <text class="num" x="618" y="230">9 days</text><text class="small" x="618" y="258">Longest Streak</text>
</svg>